<svg width="27" height="27" viewBox="0 0 27 27" fill="none" xmlns="http://www.w3.org/2000/svg">
<path d="M22.8566 4.67504C21.1358 3.88543 19.2904 3.30367 17.3609 2.97048C17.3257 2.96405 17.2906 2.98012 17.2725 3.01226C17.0352 3.43437 16.7723 3.98506 16.5882 4.4179C14.513 4.10721 12.4483 4.10721 10.4156 4.4179C10.2315 3.97544 9.95905 3.43437 9.72065 3.01226C9.70255 2.98119 9.66744 2.96512 9.63231 2.97048C7.7039 3.30261 5.85851 3.88436 4.13655 4.67504C4.12164 4.68147 4.10887 4.69219 4.10039 4.70611C0.600066 9.93552 -0.358819 15.0364 0.111578 20.074C0.113706 20.0987 0.127541 20.1222 0.146698 20.1372C2.45611 21.8332 4.69317 22.8628 6.88869 23.5453C6.92383 23.556 6.96106 23.5431 6.98342 23.5142C7.50277 22.805 7.96572 22.0572 8.36266 21.2707C8.38609 21.2247 8.36373 21.17 8.31585 21.1518C7.58152 20.8733 6.8823 20.5336 6.2097 20.1479C6.15649 20.1169 6.15224 20.0408 6.20118 20.0044C6.34272 19.8983 6.4843 19.7879 6.61945 19.6765C6.6439 19.6562 6.67797 19.6519 6.70672 19.6647C11.1254 21.6822 15.9092 21.6822 20.2758 19.6647C20.3046 19.6508 20.3386 19.6551 20.3642 19.6754C20.4994 19.7869 20.6409 19.8983 20.7835 20.0044C20.8324 20.0408 20.8292 20.1169 20.776 20.1479C20.1034 20.5411 19.4042 20.8733 18.6688 21.1507C18.6209 21.169 18.5997 21.2247 18.6231 21.2707C19.0285 22.056 19.4915 22.8039 20.0013 23.5131C20.0226 23.5431 20.0608 23.556 20.096 23.5453C22.3022 22.8628 24.5392 21.8332 26.8486 20.1372C26.8688 20.1222 26.8816 20.0997 26.8837 20.0751C27.4467 14.251 25.9408 9.19199 22.8917 4.70718C22.8843 4.69219 22.8715 4.68147 22.8566 4.67504ZM9.02253 17.0066C7.69219 17.0066 6.59602 15.7853 6.59602 14.2853C6.59602 12.7854 7.67093 11.564 9.02253 11.564C10.3847 11.564 11.4703 12.7961 11.449 14.2853C11.449 15.7853 10.3741 17.0066 9.02253 17.0066ZM17.9941 17.0066C16.6638 17.0066 15.5676 15.7853 15.5676 14.2853C15.5676 12.7854 16.6425 11.564 17.9941 11.564C19.3563 11.564 20.4419 12.7961 20.4206 14.2853C20.4206 15.7853 19.3563 17.0066 17.9941 17.0066Z" />
</svg>
