<svg width="28" height="27" viewBox="0 0 28 27" fill="none" xmlns="http://www.w3.org/2000/svg">
    <g clip-path="url(#clip0_2_202)">
        <path fill-rule="evenodd" clip-rule="evenodd" d="M14.0116 0C6.26354 0 0 6.08437 0 13.6116C0 19.6284 4.01327 24.7216 9.58073 26.5243C10.2768 26.6598 10.5318 26.2314 10.5318 25.871C10.5318 25.5555 10.5088 24.4738 10.5088 23.3468C6.61115 24.1583 5.79949 21.7242 5.79949 21.7242C5.17311 20.1467 4.245 19.7413 4.245 19.7413C2.96929 18.9075 4.33793 18.9075 4.33793 18.9075C5.75303 18.9976 6.49557 20.3046 6.49557 20.3046C7.74804 22.3778 9.76629 21.792 10.5782 21.4314C10.6941 20.5524 11.0655 19.944 11.4599 19.606C8.3512 19.2905 5.08047 18.1187 5.08047 12.8903C5.08047 11.4029 5.63687 10.1861 6.51851 9.23967C6.37941 8.90171 5.89213 7.50424 6.6579 5.63385C6.6579 5.63385 7.84097 5.27321 10.5085 7.03104C11.6506 6.73309 12.8284 6.58152 14.0116 6.58024C15.1947 6.58024 16.4007 6.73816 17.5143 7.03104C20.1822 5.27321 21.3653 5.63385 21.3653 5.63385C22.131 7.50424 21.6435 8.90171 21.5044 9.23967C22.4092 10.1861 22.9427 11.4029 22.9427 12.8903C22.9427 18.1187 19.672 19.2678 16.5401 19.606C17.0506 20.0342 17.4911 20.8453 17.4911 22.13C17.4911 23.9553 17.4682 25.4202 17.4682 25.8707C17.4682 26.2314 17.7234 26.6598 18.4192 26.5245C23.9867 24.7213 27.9999 19.6284 27.9999 13.6116C28.0229 6.08437 21.7364 0 14.0116 0Z"/>
    </g>
    <defs>
        <clipPath id="clip0_2_202">
            <rect width="28" height="27" fill="white"/>
        </clipPath>
    </defs>
</svg>
