<svg width="27" height="27" viewBox="0 0 27 27" fill="none" xmlns="http://www.w3.org/2000/svg">
<path d="M26.7311 8.10005C26.7311 8.10005 26.4674 6.23853 25.6553 5.42114C24.627 4.34536 23.4773 4.34009 22.95 4.27681C19.1742 4.00259 13.5053 4.00259 13.5053 4.00259H13.4947C13.4947 4.00259 7.82578 4.00259 4.05 4.27681C3.52266 4.34009 2.37305 4.34536 1.34473 5.42114C0.532617 6.23853 0.274219 8.10005 0.274219 8.10005C0.274219 8.10005 0 10.2885 0 12.4717V14.5178C0 16.701 0.268945 18.8895 0.268945 18.8895C0.268945 18.8895 0.532617 20.751 1.33945 21.5684C2.36777 22.6442 3.71777 22.6073 4.31895 22.7233C6.48105 22.929 13.5 22.9922 13.5 22.9922C13.5 22.9922 19.1742 22.9817 22.95 22.7127C23.4773 22.6495 24.627 22.6442 25.6553 21.5684C26.4674 20.751 26.7311 18.8895 26.7311 18.8895C26.7311 18.8895 27 16.7063 27 14.5178V12.4717C27 10.2885 26.7311 8.10005 26.7311 8.10005ZM10.7104 17.0016V9.41314L18.0035 13.2206L10.7104 17.0016Z" />
</svg>
